# Tiled2Unity generated file. Do not modify by hand.
# Wavefront file for 'Level-design-Prologue_mesh_0002.obj'

# Vertices (Count = 292)
v -304 -144 0
v -320 -144 0
v -320 -128 0
v -304 -128 0
v -320 -144 0
v -336 -144 0
v -336 -128 0
v -320 -128 0
v -336 -144 0
v -352 -144 0
v -352 -128 0
v -336 -128 0
v -352 -144 0
v -368 -144 0
v -368 -128 0
v -352 -128 0
v -368 -144 0
v -384 -144 0
v -384 -128 0
v -368 -128 0
v -384 -144 0
v -400 -144 0
v -400 -128 0
v -384 -128 0
v -400 -144 0
v -416 -144 0
v -416 -128 0
v -400 -128 0
v -416 -144 0
v -432 -144 0
v -432 -128 0
v -416 -128 0
v -432 -144 0
v -448 -144 0
v -448 -128 0
v -432 -128 0
v -448 -144 0
v -464 -144 0
v -464 -128 0
v -448 -128 0
v -464 -144 0
v -480 -144 0
v -480 -128 0
v -464 -128 0
v -480 -144 0
v -496 -144 0
v -496 -128 0
v -480 -128 0
v -304 -160 0
v -320 -160 0
v -320 -144 0
v -304 -144 0
v -320 -160 0
v -336 -160 0
v -336 -144 0
v -320 -144 0
v -336 -160 0
v -352 -160 0
v -352 -144 0
v -336 -144 0
v -352 -160 0
v -368 -160 0
v -368 -144 0
v -352 -144 0
v -368 -160 0
v -384 -160 0
v -384 -144 0
v -368 -144 0
v -384 -160 0
v -400 -160 0
v -400 -144 0
v -384 -144 0
v -400 -160 0
v -416 -160 0
v -416 -144 0
v -400 -144 0
v -416 -160 0
v -432 -160 0
v -432 -144 0
v -416 -144 0
v -432 -160 0
v -448 -160 0
v -448 -144 0
v -432 -144 0
v -448 -160 0
v -464 -160 0
v -464 -144 0
v -448 -144 0
v -160 -176 0
v -176 -176 0
v -176 -160 0
v -160 -160 0
v -336 -176 0
v -352 -176 0
v -352 -160 0
v -336 -160 0
v -352 -176 0
v -368 -176 0
v -368 -160 0
v -352 -160 0
v -368 -176 0
v -384 -176 0
v -384 -160 0
v -368 -160 0
v -384 -176 0
v -400 -176 0
v -400 -160 0
v -384 -160 0
v -400 -176 0
v -416 -176 0
v -416 -160 0
v -400 -160 0
v -416 -176 0
v -432 -176 0
v -432 -160 0
v -416 -160 0
v -432 -176 0
v -448 -176 0
v -448 -160 0
v -432 -160 0
v -448 -176 0
v -464 -176 0
v -464 -160 0
v -448 -160 0
v -336 -192 0
v -352 -192 0
v -352 -176 0
v -336 -176 0
v -352 -192 0
v -368 -192 0
v -368 -176 0
v -352 -176 0
v -368 -192 0
v -384 -192 0
v -384 -176 0
v -368 -176 0
v -384 -192 0
v -400 -192 0
v -400 -176 0
v -384 -176 0
v -400 -192 0
v -416 -192 0
v -416 -176 0
v -400 -176 0
v -416 -192 0
v -432 -192 0
v -432 -176 0
v -416 -176 0
v -432 -192 0
v -448 -192 0
v -448 -176 0
v -432 -176 0
v -448 -192 0
v -464 -192 0
v -464 -176 0
v -448 -176 0
v -336 -208 0
v -352 -208 0
v -352 -192 0
v -336 -192 0
v -352 -208 0
v -368 -208 0
v -368 -192 0
v -352 -192 0
v -368 -208 0
v -384 -208 0
v -384 -192 0
v -368 -192 0
v -384 -208 0
v -400 -208 0
v -400 -192 0
v -384 -192 0
v -400 -208 0
v -416 -208 0
v -416 -192 0
v -400 -192 0
v -416 -208 0
v -432 -208 0
v -432 -192 0
v -416 -192 0
v -432 -208 0
v -448 -208 0
v -448 -192 0
v -432 -192 0
v -448 -208 0
v -464 -208 0
v -464 -192 0
v -448 -192 0
v -32 -224 0
v -48 -224 0
v -48 -208 0
v -32 -208 0
v -48 -224 0
v -64 -224 0
v -64 -208 0
v -48 -208 0
v -32 -240 0
v -48 -240 0
v -48 -224 0
v -32 -224 0
v -48 -240 0
v -64 -240 0
v -64 -224 0
v -48 -224 0
v -176 -320 0
v -192 -320 0
v -192 -304 0
v -176 -304 0
v -400 -320 0
v -416 -320 0
v -416 -304 0
v -400 -304 0
v -176 -336 0
v -192 -336 0
v -192 -320 0
v -176 -320 0
v -432 -336 0
v -448 -336 0
v -448 -320 0
v -432 -320 0
v -448 -336 0
v -464 -336 0
v -464 -320 0
v -448 -320 0
v -432 -352 0
v -448 -352 0
v -448 -336 0
v -432 -336 0
v -448 -352 0
v -464 -352 0
v -464 -336 0
v -448 -336 0
v -432 -368 0
v -448 -368 0
v -448 -352 0
v -432 -352 0
v -448 -368 0
v -464 -368 0
v -464 -352 0
v -448 -352 0
v -288 -384 0
v -304 -384 0
v -304 -368 0
v -288 -368 0
v -304 -384 0
v -320 -384 0
v -320 -368 0
v -304 -368 0
v -368 -416 0
v -384 -416 0
v -384 -400 0
v -368 -400 0
v -384 -416 0
v -400 -416 0
v -400 -400 0
v -384 -400 0
v -368 -432 0
v -384 -432 0
v -384 -416 0
v -368 -416 0
v -384 -432 0
v -400 -432 0
v -400 -416 0
v -384 -416 0
v -368 -448 0
v -384 -448 0
v -384 -432 0
v -368 -432 0
v -384 -448 0
v -400 -448 0
v -400 -432 0
v -384 -432 0
v -336 -464 0
v -352 -464 0
v -352 -448 0
v -336 -448 0
v -352 -464 0
v -368 -464 0
v -368 -448 0
v -352 -448 0
v -192 -512 0
v -208 -512 0
v -208 -496 0
v -192 -496 0
v -208 -560 0
v -224 -560 0
v -224 -544 0
v -208 -544 0
v -224 -560 0
v -240 -560 0
v -240 -544 0
v -224 -544 0

# Texture cooridinates (Count = 29)
vt 0 0.9191919
vt 0.04733728 0.9191919
vt 0.04733728 1
vt 0 1
vt 0.09467456 0.9191919
vt 0.09467456 1
vt 0.3786982 0.9191919
vt 0.4260355 0.9191919
vt 0.4260355 1
vt 0.3786982 1
vt 0 0.7575758
vt 0.04733728 0.7575758
vt 0.04733728 0.8383839
vt 0 0.8383839
vt 0.09467456 0.7575758
vt 0.09467456 0.8383839
vt 0 0.6767677
vt 0.04733728 0.6767677
vt 0.09467456 0.6767677
vt 0.1420118 0.9191919
vt 0.1893491 0.9191919
vt 0.1893491 1
vt 0.1420118 1
vt 0.3313609 0.9191919
vt 0.3313609 1
vt 0.1420118 0.8383839
vt 0.1893491 0.8383839
vt 0.2366864 0.9191919
vt 0.2366864 1

# Normal
vn 0 0 -1

# Mesh description
g Level-design-Prologue_mesh_0002

# Faces
f 1/1/1 2/2/1 3/3/1 4/4/1
f 5/1/1 6/2/1 7/3/1 8/4/1
f 9/1/1 10/2/1 11/3/1 12/4/1
f 13/1/1 14/2/1 15/3/1 16/4/1
f 17/1/1 18/2/1 19/3/1 20/4/1
f 21/1/1 22/2/1 23/3/1 24/4/1
f 25/1/1 26/2/1 27/3/1 28/4/1
f 29/1/1 30/2/1 31/3/1 32/4/1
f 33/1/1 34/2/1 35/3/1 36/4/1
f 37/1/1 38/2/1 39/3/1 40/4/1
f 41/1/1 42/2/1 43/3/1 44/4/1
f 45/1/1 46/2/1 47/3/1 48/4/1
f 49/2/1 50/5/1 51/6/1 52/3/1
f 53/2/1 54/5/1 55/6/1 56/3/1
f 57/2/1 58/5/1 59/6/1 60/3/1
f 61/2/1 62/5/1 63/6/1 64/3/1
f 65/2/1 66/5/1 67/6/1 68/3/1
f 69/2/1 70/5/1 71/6/1 72/3/1
f 73/2/1 74/5/1 75/6/1 76/3/1
f 77/2/1 78/5/1 79/6/1 80/3/1
f 81/2/1 82/5/1 83/6/1 84/3/1
f 85/2/1 86/5/1 87/6/1 88/3/1
f 89/7/1 90/8/1 91/9/1 92/10/1
f 93/2/1 94/5/1 95/6/1 96/3/1
f 97/2/1 98/5/1 99/6/1 100/3/1
f 101/2/1 102/5/1 103/6/1 104/3/1
f 105/2/1 106/5/1 107/6/1 108/3/1
f 109/2/1 110/5/1 111/6/1 112/3/1
f 113/2/1 114/5/1 115/6/1 116/3/1
f 117/2/1 118/5/1 119/6/1 120/3/1
f 121/2/1 122/5/1 123/6/1 124/3/1
f 125/2/1 126/5/1 127/6/1 128/3/1
f 129/2/1 130/5/1 131/6/1 132/3/1
f 133/2/1 134/5/1 135/6/1 136/3/1
f 137/2/1 138/5/1 139/6/1 140/3/1
f 141/2/1 142/5/1 143/6/1 144/3/1
f 145/2/1 146/5/1 147/6/1 148/3/1
f 149/2/1 150/5/1 151/6/1 152/3/1
f 153/2/1 154/5/1 155/6/1 156/3/1
f 157/2/1 158/5/1 159/6/1 160/3/1
f 161/2/1 162/5/1 163/6/1 164/3/1
f 165/2/1 166/5/1 167/6/1 168/3/1
f 169/2/1 170/5/1 171/6/1 172/3/1
f 173/2/1 174/5/1 175/6/1 176/3/1
f 177/2/1 178/5/1 179/6/1 180/3/1
f 181/2/1 182/5/1 183/6/1 184/3/1
f 185/2/1 186/5/1 187/6/1 188/3/1
f 189/11/1 190/12/1 191/13/1 192/14/1
f 193/12/1 194/15/1 195/16/1 196/13/1
f 197/17/1 198/18/1 199/12/1 200/11/1
f 201/18/1 202/19/1 203/15/1 204/12/1
f 205/20/1 206/21/1 207/22/1 208/23/1
f 209/24/1 210/7/1 211/10/1 212/25/1
f 213/26/1 214/27/1 215/21/1 216/20/1
f 217/1/1 218/2/1 219/3/1 220/4/1
f 221/1/1 222/2/1 223/3/1 224/4/1
f 225/2/1 226/5/1 227/6/1 228/3/1
f 229/2/1 230/5/1 231/6/1 232/3/1
f 233/2/1 234/5/1 235/6/1 236/3/1
f 237/2/1 238/5/1 239/6/1 240/3/1
f 241/13/1 242/16/1 243/5/1 244/2/1
f 245/13/1 246/16/1 247/5/1 248/2/1
f 249/11/1 250/12/1 251/13/1 252/14/1
f 253/12/1 254/15/1 255/16/1 256/13/1
f 257/17/1 258/18/1 259/12/1 260/11/1
f 261/18/1 262/19/1 263/15/1 264/12/1
f 265/1/1 266/2/1 267/3/1 268/4/1
f 269/1/1 270/2/1 271/3/1 272/4/1
f 273/1/1 274/2/1 275/3/1 276/4/1
f 277/1/1 278/2/1 279/3/1 280/4/1
f 281/21/1 282/28/1 283/29/1 284/22/1
f 285/13/1 286/16/1 287/5/1 288/2/1
f 289/13/1 290/16/1 291/5/1 292/2/1

