# Tiled2Unity generated file. Do not modify by hand.
# Wavefront file for 'Level-2_mesh_0003.obj'

# Vertices (Count = 52)
v -896 -128 0
v -912 -128 0
v -912 -112 0
v -896 -112 0
v -912 -128 0
v -928 -128 0
v -928 -112 0
v -912 -112 0
v -1040 -128 0
v -1056 -128 0
v -1056 -112 0
v -1040 -112 0
v -1056 -128 0
v -1072 -128 0
v -1072 -112 0
v -1056 -112 0
v -896 -144 0
v -912 -144 0
v -912 -128 0
v -896 -128 0
v -912 -144 0
v -928 -144 0
v -928 -128 0
v -912 -128 0
v -1040 -144 0
v -1056 -144 0
v -1056 -128 0
v -1040 -128 0
v -1056 -144 0
v -1072 -144 0
v -1072 -128 0
v -1056 -128 0
v -1280 -144 0
v -1296 -144 0
v -1296 -128 0
v -1280 -128 0
v -1296 -144 0
v -1312 -144 0
v -1312 -128 0
v -1296 -128 0
v -1280 -160 0
v -1296 -160 0
v -1296 -144 0
v -1280 -144 0
v -1296 -160 0
v -1312 -160 0
v -1312 -144 0
v -1296 -144 0
v -1536 -160 0
v -1552 -160 0
v -1552 -144 0
v -1536 -144 0

# Texture cooridinates (Count = 19)
vt 0.09467456 0.7575758
vt 0.1420118 0.7575758
vt 0.1420118 0.8383839
vt 0.09467456 0.8383839
vt 0.1893491 0.7575758
vt 0.1893491 0.8383839
vt 0.09467456 0.6767677
vt 0.1420118 0.6767677
vt 0.1893491 0.6767677
vt 0 0.7575758
vt 0.04733728 0.7575758
vt 0.04733728 0.8383839
vt 0 0.8383839
vt 0 0.6767677
vt 0.04733728 0.6767677
vt 0.1893491 0.9191919
vt 0.2366864 0.9191919
vt 0.2366864 1
vt 0.1893491 1

# Normal
vn 0 0 -1

# Mesh description
g Level-2_mesh_0003

# Faces
f 1/1/1 2/2/1 3/3/1 4/4/1
f 5/2/1 6/5/1 7/6/1 8/3/1
f 9/1/1 10/2/1 11/3/1 12/4/1
f 13/2/1 14/5/1 15/6/1 16/3/1
f 17/7/1 18/8/1 19/2/1 20/1/1
f 21/8/1 22/9/1 23/5/1 24/2/1
f 25/7/1 26/8/1 27/2/1 28/1/1
f 29/8/1 30/9/1 31/5/1 32/2/1
f 33/10/1 34/11/1 35/12/1 36/13/1
f 37/11/1 38/1/1 39/4/1 40/12/1
f 41/14/1 42/15/1 43/11/1 44/10/1
f 45/15/1 46/7/1 47/1/1 48/11/1
f 49/16/1 50/17/1 51/18/1 52/19/1

